<svg width="23" height="17" viewBox="0 0 23 17" fill="none" xmlns="http://www.w3.org/2000/svg">
<path d="M12.4011 0.6875C14.9241 0.6875 16.6856 2.42608 16.6856 4.91762V12.0824C16.6856 14.5739 14.9241 16.3125 12.4011 16.3125H4.70107C2.17813 16.3125 0.416656 14.5739 0.416656 12.0824V4.91762C0.416656 2.42608 2.17813 0.6875 4.70107 0.6875H12.4011ZM20.7895 3.16561C21.2468 2.93295 21.7833 2.95728 22.2198 3.23223C22.6562 3.50613 22.9167 3.98202 22.9167 4.50233V12.4983C22.9167 13.0197 22.6562 13.4945 22.2198 13.7684C21.9812 13.9175 21.7146 13.9937 21.4458 13.9937C21.2218 13.9937 20.9979 13.9408 20.7885 13.834L19.2458 13.0556C18.6749 12.7659 18.3208 12.1842 18.3208 11.5381V5.46151C18.3208 4.8143 18.6749 4.23266 19.2458 3.94501L20.7895 3.16561Z" fill="#BEBEBE"/>
</svg>
